# xmcd
#
# Track frame offsets: 
#        150
#        19120
#        37890
#        58851
#        77765
#        95941
#        112827
#        131735
#        148651
#        164996
#        184242
#        202386
#
# Disc length: 2905 seconds
#
# Revision: 1
# Processed by: cddbd v1.5.2PL0 Copyright (c) Steve Scherf et al.
# Submitted via: ExactAudioCopy v0.95b4
#
DISCID=b70b570c
DTITLE=Various Artist - รวมดาวผู้บ่าวเสียงอิสาน ชุดที่ 1
DYEAR=2008
DGENRE=Country
TTITLE0=คิดฮอดสาวผมแดง
TTITLE1=ช้อนสองตะเกียบสี่
TTITLE2=หนุ่มอีเล็คโทน
TTITLE3=เสียงแคนเแทนใจ
TTITLE4=เหงาใจให้โทรมา
TTITLE5=เมินจันทร์
TTITLE6=เมียเฮาผู้สาวโต
TTITLE7=เด็กแนว
TTITLE8=ออนซอนเด้
TTITLE9=สัญญาณหัวใจ
TTITLE10=บั้งไฟลูเที'
TTITLE11=หัวอกแม่ยกเฒ่า
EXTD=
EXTT0=
EXTT1=
EXTT2=
EXTT3=
EXTT4=
EXTT5=
EXTT6=
EXTT7=
EXTT8=
EXTT9=
EXTT10=
EXTT11=
PLAYORDER=
